# xmcd CD database file
#
# Track frame offsets:
#	150
#	17513
#	36783
#	57469
#	76448
#	99984
#	120750
#	141954
#	156848
#	174625
#	193736
#	222150
#
# Disc length: 3244 seconds
#
# Revision: 24
# Processed by: cddbd v1.5.2PL0 Copyright (c) Steve Scherf et al.
# Submitted via: CDex 1.70beta3
#
DISCID=9b0caa0c
DTITLE=栗林みな実 - Overture
DYEAR=2004
DGENRE=Anime
TTITLE0=Precious Memories
TTITLE1=Blue tears
TTITLE2=いっしょにいたいね
TTITLE3=風のゆくえ
TTITLE4=yours
TTITLE5=HAPPY BIRTHDAY
TTITLE6=Rumbling hearts
TTITLE7=星空のワルツ
TTITLE8=ひとことだけの勇気
TTITLE9=I will
TTITLE10=遙かなる地球(ふるさと)の歌
TTITLE11=マブラヴ
EXTD=YEAR: 2004
EXTT0=
EXTT1=
EXTT2=
EXTT3=
EXTT4=
EXTT5=
EXTT6=
EXTT7=
EXTT8=
EXTT9=
EXTT10=
EXTT11=
PLAYORDER=
